<?xml version="1.0" standalone="no"?>
<!DOCTYPE svg PUBLIC "-//W3C//DTD SVG 20010904//EN"
 "http://www.w3.org/TR/2001/REC-SVG-20010904/DTD/svg10.dtd">
<svg version="1.0" xmlns="http://www.w3.org/2000/svg"
 width="2546.000000pt" height="1512.000000pt" viewBox="0 0 2546.000000 1512.000000"
 preserveAspectRatio="xMidYMid meet">

<g transform="translate(0.000000,1512.000000) scale(0.100000,-0.100000)"
fill="#000000" stroke="none">
<path d="M113 14126 c-91 -42 -76 -187 21 -209 88 -19 184 -37 256 -47 205
-29 349 -70 515 -145 177 -80 306 -149 430 -230 44 -28 127 -82 185 -119 58
-38 117 -77 132 -87 15 -10 29 -19 32 -19 3 0 25 -13 49 -30 25 -16 48 -30 52
-30 4 0 19 -8 33 -19 15 -10 45 -29 67 -42 94 -53 184 -104 245 -137 36 -19
90 -49 120 -66 96 -55 564 -284 740 -362 114 -51 413 -205 529 -274 29 -16 54
-30 56 -30 18 0 644 -396 665 -420 3 -4 43 -33 90 -65 128 -88 395 -289 530
-398 8 -7 35 -28 60 -47 25 -19 47 -37 50 -40 3 -3 30 -25 60 -50 30 -25 57
-47 60 -50 3 -3 30 -25 60 -50 30 -25 57 -47 60 -50 3 -3 37 -32 75 -65 96
-82 227 -197 245 -215 8 -8 53 -49 100 -90 47 -41 96 -86 110 -100 14 -14 55
-52 90 -84 36 -33 112 -105 170 -161 279 -269 504 -470 569 -508 30 -17 30
-17 46 6 20 32 34 145 36 297 1 177 10 234 39 266 23 24 29 26 83 20 94 -10
362 -132 520 -238 81 -54 162 -113 177 -128 3 -3 30 -25 60 -50 30 -25 64 -54
75 -66 11 -11 81 -76 155 -145 74 -68 142 -130 150 -139 8 -8 44 -40 80 -70
36 -30 67 -57 70 -60 3 -3 21 -17 42 -32 20 -15 42 -34 50 -41 43 -41 440
-327 455 -327 3 0 14 -6 22 -14 29 -26 216 -120 261 -132 111 -28 149 50 79
162 -20 34 -53 62 -166 144 -119 87 -267 212 -543 459 -58 52 -247 230 -420
396 -173 166 -360 342 -416 391 -155 137 -228 201 -277 242 -25 20 -85 71
-133 112 -49 41 -158 130 -244 198 -85 68 -162 129 -172 137 -40 33 -195 133
-216 139 -42 14 -81 -3 -101 -43 -23 -45 -47 -135 -56 -215 -13 -116 -27 -125
-117 -78 -54 29 -306 194 -453 297 -44 30 -96 66 -115 79 -19 13 -75 53 -125
89 -398 291 -665 493 -924 701 -90 72 -178 142 -195 156 -33 26 -111 92 -246
209 -133 114 -270 261 -270 288 0 20 5 23 43 23 139 0 478 -135 977 -389 146
-74 310 -157 365 -185 55 -28 102 -53 105 -56 3 -3 61 -33 130 -68 422 -212
1095 -555 1148 -586 35 -20 66 -36 68 -36 7 0 239 -143 326 -201 193 -130 722
-538 988 -764 26 -22 85 -71 131 -110 45 -38 92 -79 104 -90 12 -11 64 -57
116 -101 103 -89 160 -148 319 -329 57 -66 145 -163 195 -215 95 -100 277
-297 336 -365 19 -21 52 -60 75 -85 22 -25 51 -59 65 -76 13 -17 51 -64 84
-105 151 -186 283 -375 330 -472 28 -57 28 -61 22 -185 -4 -70 -11 -152 -16
-182 -5 -30 -14 -91 -21 -135 -24 -166 -31 -213 -51 -330 -20 -123 -49 -283
-76 -415 -44 -222 -55 -420 -33 -601 59 -489 107 -786 180 -1109 30 -133 129
-407 210 -586 17 -35 30 -66 30 -69 0 -2 25 -56 55 -120 30 -65 55 -119 55
-122 0 -6 270 -546 280 -558 4 -5 32 -58 63 -116 31 -58 69 -129 86 -158 17
-28 31 -54 31 -56 0 -7 198 -333 242 -398 35 -53 164 -229 309 -422 20 -27 78
-108 127 -180 50 -71 95 -134 99 -140 5 -5 44 -62 87 -125 93 -135 281 -373
412 -520 99 -111 239 -266 309 -340 182 -195 374 -422 405 -479 15 -29 -1 -81
-39 -130 -38 -48 -39 -80 -3 -112 98 -89 374 -117 537 -53 43 16 105 66 111
88 4 17 -4 38 -28 73 -19 28 -40 64 -47 82 -13 29 -11 34 15 74 15 23 33 47
38 52 6 6 23 26 38 47 15 20 33 42 40 50 7 7 42 47 78 88 36 41 72 82 80 90 8
8 58 62 110 120 52 58 120 132 151 165 31 33 74 80 95 105 22 25 45 51 52 58
7 8 56 66 109 130 54 64 100 119 103 122 24 23 104 130 190 255 105 151 177
255 260 370 25 34 61 85 79 111 19 27 85 117 146 199 61 83 147 204 191 270
91 134 264 421 264 435 0 6 4 10 9 10 5 0 11 8 14 17 4 10 33 68 67 128 104
190 298 583 368 746 11 24 28 64 40 89 11 25 39 92 62 150 23 58 48 119 55
135 36 81 136 383 170 514 36 136 88 431 116 661 24 199 30 276 36 464 7 251
0 334 -68 716 -20 110 -25 140 -49 295 -6 39 -16 97 -21 130 -36 222 -59 407
-59 480 0 59 5 79 31 130 41 77 134 217 219 329 25 32 54 71 65 85 106 140
301 365 446 516 112 117 263 284 369 410 123 146 228 249 434 425 16 14 53 45
81 70 105 91 155 132 434 353 29 23 72 58 96 77 23 19 66 53 95 75 29 22 72
56 95 75 41 33 63 51 213 170 59 46 197 140 207 140 3 0 34 18 70 40 36 22 67
40 70 40 2 0 26 13 52 28 81 48 222 124 483 260 58 31 159 84 225 119 151 81
1464 737 1565 783 41 18 117 53 169 77 222 104 347 143 452 143 80 0 84 -7 40
-66 -93 -126 -465 -434 -1015 -837 -16 -12 -41 -31 -55 -43 -14 -11 -91 -70
-171 -131 -164 -124 -227 -172 -355 -272 -132 -103 -369 -272 -473 -338 -51
-32 -111 -70 -135 -85 -81 -52 -179 -99 -200 -96 -47 7 -74 128 -46 207 9 24
8 43 -1 77 -18 65 -45 79 -145 78 -112 -2 -188 -35 -242 -107 -40 -53 -241
-244 -382 -362 -305 -255 -568 -493 -846 -764 -182 -177 -350 -334 -479 -447
-44 -38 -89 -78 -101 -89 -81 -77 -324 -273 -438 -352 -119 -82 -161 -223 -74
-250 67 -20 165 24 412 186 105 69 305 214 366 265 20 17 45 38 55 46 52 41
134 109 179 150 123 112 173 159 230 215 33 33 94 89 135 125 41 36 77 67 80
70 6 7 100 76 170 126 70 50 93 63 230 132 252 125 362 158 405 122 39 -32 45
-71 45 -295 0 -276 14 -319 90 -268 28 18 132 95 140 103 3 3 39 34 80 70 41
36 82 72 90 80 8 8 76 71 150 140 74 68 173 161 220 206 47 44 112 105 145
135 33 30 67 61 75 69 54 55 412 365 605 524 27 23 65 55 85 71 19 17 55 46
80 65 54 42 73 57 114 91 38 32 272 208 302 229 13 8 76 53 141 100 262 189
588 395 908 573 73 40 529 268 605 301 156 70 511 249 710 358 36 20 85 47
110 60 25 14 70 40 100 58 30 18 75 44 100 58 25 14 74 44 110 67 36 22 72 44
80 48 8 4 69 42 135 86 439 292 645 386 1005 460 183 37 241 44 331 36 l89 -7
0 121 c0 90 -3 121 -12 122 -7 0 -69 0 -138 -1 -134 -2 -237 -18 -470 -73 -80
-19 -170 -40 -200 -47 -30 -6 -82 -17 -115 -25 -51 -12 -145 -28 -295 -50
-260 -38 -569 -88 -655 -105 -27 -6 -77 -14 -110 -20 -33 -5 -78 -14 -100 -19
-22 -5 -87 -18 -145 -30 -58 -12 -123 -27 -145 -33 -22 -6 -76 -19 -120 -28
-209 -47 -254 -58 -305 -73 -30 -8 -109 -30 -175 -47 -285 -75 -967 -292
-1120 -356 -16 -7 -55 -21 -85 -32 -300 -108 -582 -230 -945 -407 -547 -267
-713 -344 -1013 -470 -165 -69 -359 -162 -470 -226 -47 -27 -87 -49 -89 -49
-16 0 -313 -198 -448 -299 -163 -122 -330 -239 -474 -333 -33 -22 -42 -28
-171 -124 -94 -69 -184 -140 -343 -272 -104 -87 -406 -311 -547 -407 -80 -54
-187 -131 -239 -169 -51 -39 -106 -80 -120 -91 -30 -22 -123 -97 -131 -105 -3
-3 -30 -25 -60 -50 -30 -25 -57 -47 -60 -50 -3 -3 -39 -34 -80 -70 -227 -199
-971 -942 -1190 -1190 -41 -47 -77 -87 -80 -90 -3 -3 -27 -31 -53 -63 -41 -52
-45 -61 -36 -85 22 -57 77 -152 161 -279 48 -73 88 -135 88 -139 0 -3 8 -18
19 -32 104 -147 294 -579 351 -797 5 -16 15 -55 23 -85 8 -30 20 -82 27 -115
7 -33 16 -73 20 -90 8 -30 20 -111 40 -261 16 -123 13 -548 -4 -681 -58 -429
-153 -721 -364 -1108 -196 -360 -354 -578 -591 -816 -246 -245 -471 -404 -876
-619 -184 -98 -282 -152 -366 -206 l-67 -43 -11 -68 c-5 -37 -15 -185 -21
-328 -14 -338 -31 -436 -124 -718 -24 -73 -58 -179 -75 -237 -18 -58 -37 -116
-42 -130 -5 -14 -22 -79 -39 -145 -45 -176 -62 -224 -87 -252 -28 -30 -41 -27
-70 15 -22 33 -29 54 -87 257 -19 66 -58 194 -86 285 -83 264 -115 382 -145
526 -20 94 -35 262 -35 383 0 156 -15 363 -30 397 -11 28 -141 108 -345 214
-88 46 -164 86 -170 90 -5 4 -41 25 -80 46 -70 38 -189 112 -300 187 -313 212
-560 455 -731 718 -16 24 -31 46 -34 49 -7 6 -149 231 -180 285 -266 462 -345
659 -394 990 -32 218 -39 329 -39 610 0 446 28 614 162 982 16 45 36 96 44
115 8 18 38 89 67 158 99 236 230 490 309 603 17 23 51 65 77 92 25 28 55 69
66 93 19 43 19 43 -2 86 -39 82 -254 322 -604 674 -193 194 -394 392 -446 439
-52 47 -127 116 -165 152 -63 58 -157 142 -330 291 -153 132 -261 214 -435
332 -331 223 -631 451 -753 570 -84 83 -162 142 -322 247 -77 51 -147 96 -155
101 -71 43 -243 164 -375 263 -251 189 -297 220 -485 327 -54 30 -381 193
-450 223 -68 30 -252 108 -370 157 -41 18 -97 42 -125 55 -58 27 -177 82 -250
115 -27 12 -169 81 -315 152 -322 158 -493 237 -625 290 -55 22 -119 48 -142
59 -24 10 -45 19 -48 19 -7 0 -157 57 -201 76 -18 8 -58 22 -90 33 -33 10
-117 39 -189 64 -71 25 -204 69 -295 97 -91 29 -183 58 -205 65 -269 87 -931
255 -1265 321 -41 8 -118 23 -170 34 -124 25 -327 58 -465 76 -217 27 -616 98
-790 139 -294 70 -364 83 -485 90 -62 4 -94 2 -117 -9z"/>
<path d="M3 9720 c0 -1043 2 -1257 8 -905 13 775 36 1050 93 1114 19 21 27 23
80 17 32 -3 75 -10 95 -16 20 -5 77 -19 126 -31 137 -33 339 -87 450 -120 170
-51 417 -130 473 -150 28 -10 77 -28 107 -39 130 -47 172 -63 202 -76 17 -8
34 -14 38 -14 3 0 31 -11 61 -25 30 -14 57 -25 59 -25 2 0 34 -13 70 -30 36
-16 68 -30 70 -30 2 0 30 -12 62 -26 32 -14 72 -32 88 -40 35 -15 136 -54 254
-96 46 -16 114 -43 150 -60 36 -17 89 -40 116 -53 28 -12 115 -54 195 -93 80
-38 195 -91 255 -117 61 -25 124 -53 140 -60 17 -7 99 -40 182 -74 84 -33 172
-69 196 -80 24 -11 66 -29 93 -39 27 -11 88 -38 137 -61 48 -23 89 -41 92 -41
4 0 145 -66 345 -162 69 -33 301 -148 517 -254 215 -107 394 -194 396 -194 3
0 57 -25 122 -55 202 -96 340 -145 409 -145 46 0 79 21 107 68 28 48 23 84
-36 257 -61 182 -84 282 -91 395 -5 80 -3 101 13 130 16 31 22 35 58 34 22 0
73 -8 112 -17 72 -17 90 -20 191 -38 134 -23 182 -33 382 -79 19 -4 58 -13 85
-19 28 -6 68 -16 90 -22 22 -5 58 -14 80 -19 22 -6 56 -14 75 -19 19 -5 107
-28 195 -51 88 -23 174 -45 190 -50 17 -4 57 -16 90 -25 233 -63 582 -172 680
-212 33 -14 77 -36 97 -50 31 -21 51 -26 106 -27 89 -1 103 9 90 67 -5 23 -18
56 -30 72 -36 54 -177 126 -363 186 -38 12 -92 30 -120 39 -27 9 -111 36 -185
60 -74 24 -139 47 -144 52 -6 4 -18 8 -28 8 -10 0 -26 4 -36 9 -9 5 -42 19
-72 30 -213 79 -301 116 -500 207 -245 112 -293 131 -510 206 -140 49 -218 72
-345 104 -33 8 -76 19 -95 24 -110 31 -207 42 -318 38 -124 -5 -166 -17 -179
-52 -11 -29 -6 -274 6 -369 6 -42 16 -114 22 -160 15 -109 17 -229 4 -234 -6
-2 -36 14 -67 34 -412 277 -611 401 -878 550 -127 70 -353 183 -369 183 -4 0
-21 6 -37 14 -26 12 -55 25 -129 57 -11 4 -60 26 -108 49 -49 22 -91 40 -92
40 -2 0 -56 25 -120 55 -65 30 -119 55 -120 55 -2 0 -64 29 -137 64 -422 202
-714 315 -1033 400 -191 51 -363 105 -370 116 -11 17 115 23 370 16 411 -10
849 -30 920 -41 17 -3 111 -12 209 -20 99 -9 182 -18 186 -20 4 -3 63 -11 131
-20 178 -22 383 -53 509 -78 73 -15 143 -29 210 -42 41 -8 118 -24 170 -35 52
-11 118 -25 145 -30 28 -6 79 -17 115 -26 80 -18 142 -33 195 -44 22 -5 78
-18 125 -29 114 -26 244 -55 365 -81 55 -11 118 -25 140 -30 22 -4 67 -14 100
-21 320 -66 885 -235 1333 -400 28 -10 78 -28 110 -40 31 -12 66 -25 77 -29
11 -4 47 -18 80 -30 33 -12 79 -31 102 -41 24 -11 47 -19 53 -19 6 0 18 -4 28
-9 24 -13 64 -30 247 -104 270 -110 362 -151 610 -272 468 -228 611 -293 735
-331 63 -19 86 -17 104 8 51 72 -18 132 -349 305 -191 101 -510 255 -785 381
-43 19 -284 125 -325 142 -47 19 -94 40 -148 64 -32 14 -61 26 -66 26 -4 0
-22 7 -38 15 -41 21 -161 63 -393 141 -250 83 -337 118 -413 165 -66 41 -241
130 -347 177 -36 16 -81 36 -102 45 -20 10 -39 17 -43 17 -3 0 -31 11 -61 25
-30 14 -57 25 -60 25 -5 0 -157 57 -189 71 -33 14 -269 97 -440 154 -465 154
-844 246 -1180 286 -38 5 -101 13 -140 18 -242 32 -320 42 -405 51 -52 6 -129
15 -170 20 -41 5 -127 14 -190 20 -63 6 -149 16 -190 21 -69 9 -212 21 -565
49 -71 6 -137 12 -145 15 -16 4 -87 9 -365 25 -99 6 -187 13 -195 15 -8 2 -73
7 -145 10 -71 3 -222 10 -335 16 -113 5 -392 13 -621 16 -356 5 -438 3 -560
-12 -79 -9 -146 -17 -149 -17 -57 -3 -76 91 -89 447 -5 139 -8 -281 -8 -1145z"/>
<path d="M24580 10444 c-34 -3 -735 -26 -795 -26 -16 0 -77 -4 -135 -9 -58 -5
-186 -13 -285 -19 -229 -13 -321 -19 -365 -26 -19 -2 -89 -9 -155 -14 -332
-25 -511 -41 -523 -45 -8 -3 -62 -9 -120 -15 -59 -5 -145 -14 -192 -19 -47 -5
-110 -12 -140 -16 -30 -3 -84 -10 -120 -15 -36 -5 -94 -12 -130 -15 -36 -3
-101 -12 -145 -20 -44 -7 -127 -19 -185 -25 -58 -6 -148 -20 -200 -30 -52 -10
-126 -23 -165 -29 -135 -22 -449 -103 -665 -172 -52 -17 -138 -44 -190 -61
-494 -158 -1053 -384 -1226 -498 -84 -55 -278 -133 -519 -210 -128 -40 -317
-110 -329 -121 -6 -5 -16 -9 -23 -9 -8 0 -33 -9 -55 -20 -23 -11 -45 -20 -50
-20 -4 0 -31 -11 -60 -24 -29 -13 -100 -44 -158 -69 -134 -58 -202 -88 -320
-144 -52 -24 -140 -65 -195 -91 -186 -87 -580 -291 -627 -323 -14 -11 -29 -19
-33 -19 -3 0 -43 -24 -88 -54 -93 -61 -152 -126 -142 -155 8 -26 54 -35 107
-21 56 16 206 73 286 111 35 16 65 29 68 29 6 0 118 53 382 181 123 60 226
109 228 109 2 0 41 17 87 39 45 21 116 53 157 70 41 18 89 39 105 46 17 7 55
23 85 35 57 22 82 33 162 69 26 11 52 21 58 21 6 0 18 4 28 9 24 12 51 23 177
71 61 23 119 46 130 50 11 5 61 23 110 40 50 17 108 38 130 47 146 55 661 218
850 268 176 47 368 96 420 107 28 5 68 14 90 19 22 5 65 13 95 18 142 24 243
43 330 62 108 23 108 23 365 84 105 25 219 53 255 61 36 8 83 19 105 24 396
94 992 174 1460 196 61 3 130 7 155 10 93 10 1105 15 1090 5 -8 -5 -51 -17
-95 -26 -161 -33 -261 -55 -315 -70 -122 -33 -376 -107 -409 -120 -20 -7 -74
-27 -121 -45 -94 -34 -100 -36 -185 -75 -33 -15 -76 -33 -95 -40 -19 -7 -135
-63 -256 -124 -122 -61 -224 -111 -227 -111 -2 0 -47 -19 -98 -43 -123 -57
-168 -75 -329 -138 -135 -52 -390 -172 -530 -250 -184 -102 -505 -306 -650
-413 -83 -61 -242 -156 -252 -150 -16 10 -7 111 36 386 9 54 18 157 22 230 6
126 5 134 -15 160 -45 56 -200 60 -437 12 -44 -9 -97 -20 -119 -24 -54 -11
-225 -59 -250 -70 -11 -5 -38 -14 -60 -21 -145 -44 -463 -173 -613 -248 -42
-21 -131 -59 -197 -85 -66 -26 -129 -51 -140 -56 -18 -8 -84 -32 -210 -75 -27
-10 -59 -22 -70 -26 -36 -15 -348 -120 -420 -140 -38 -12 -117 -32 -175 -46
-119 -28 -143 -45 -204 -147 -48 -80 -48 -112 1 -133 45 -18 113 -12 151 16
67 47 209 100 517 192 39 12 81 25 95 29 14 4 43 13 65 19 22 6 73 20 113 31
70 20 382 101 467 121 22 6 56 14 75 19 107 27 243 59 383 89 23 5 62 14 87
19 156 35 362 71 441 78 72 6 77 5 93 -17 39 -56 10 -266 -69 -504 -68 -203
-76 -242 -61 -280 20 -47 73 -69 145 -60 79 9 225 59 369 126 35 16 65 29 67
29 2 0 52 23 112 51 101 48 194 93 801 390 133 66 244 119 246 119 3 0 57 25
121 55 63 30 117 55 119 55 3 0 35 14 73 31 145 65 410 179 418 179 3 0 27 9
53 21 85 38 106 47 207 90 55 23 128 54 163 70 34 16 65 29 67 29 3 0 69 31
148 69 181 88 307 143 377 165 30 10 74 26 97 37 24 10 49 19 56 19 7 0 17 4
23 8 5 5 36 19 69 32 33 13 88 36 123 52 34 15 65 28 67 28 2 0 34 14 70 30
36 17 68 30 70 30 3 0 24 9 48 19 104 48 511 190 747 260 134 40 145 44 170
52 24 8 396 102 510 129 30 8 80 14 110 15 30 1 67 3 83 4 l27 1 0 250 0 250
-422 -2 c-233 -1 -439 -3 -458 -4z"/>
<path d="M3095 7405 c-54 -13 -100 -27 -245 -80 -25 -9 -58 -22 -75 -30 -56
-24 -168 -66 -244 -91 -42 -14 -85 -29 -96 -34 -32 -14 -486 -161 -755 -245
-135 -42 -272 -84 -305 -95 -33 -11 -145 -47 -250 -81 -104 -34 -199 -65 -210
-69 -11 -4 -47 -18 -80 -31 -33 -12 -82 -33 -110 -45 -165 -74 -107 -157 142
-202 212 -38 343 -52 863 -92 150 -11 316 -26 460 -40 52 -5 122 -12 155 -15
63 -6 77 -8 215 -25 47 -6 120 -15 164 -20 43 -5 86 -12 95 -14 9 -3 63 -13
121 -21 58 -9 125 -20 150 -24 73 -15 162 -32 205 -41 22 -4 67 -13 100 -20
33 -6 80 -15 105 -20 41 -7 223 -40 310 -55 112 -19 218 -36 350 -55 253 -37
489 -89 613 -135 34 -13 94 -35 132 -49 56 -21 88 -27 157 -27 48 0 93 3 100
7 6 4 28 11 47 15 20 4 99 23 176 42 77 19 167 40 200 47 33 6 78 15 100 20
22 4 72 14 110 20 165 28 249 83 232 152 -18 72 -134 138 -485 277 -257 102
-780 279 -982 331 -25 7 -54 16 -65 20 -11 5 -31 11 -45 13 -14 3 -70 17 -125
30 -55 14 -131 30 -170 37 -205 36 -217 69 -35 99 194 31 270 33 830 27 311
-4 601 -9 645 -11 1125 -48 1025 -42 1305 -84 169 -25 309 -50 455 -81 22 -5
67 -14 100 -20 167 -32 449 -98 600 -141 397 -111 552 -235 730 -584 92 -181
112 -233 280 -720 46 -132 98 -277 116 -323 50 -127 94 -161 138 -106 74 94
68 348 -18 694 -73 293 -116 546 -141 840 -35 388 -80 505 -225 577 -93 47
-319 102 -525 128 -58 8 -125 18 -150 24 -43 9 -107 16 -250 26 -85 5 -245 24
-262 30 -7 3 -56 12 -108 20 -107 17 -167 29 -225 44 -42 11 -191 37 -260 46
-305 38 -597 65 -1040 95 -323 22 -517 37 -855 66 -218 18 -387 16 -930 -11
-274 -14 -365 -15 -575 -5 -137 6 -279 16 -315 21 -93 12 -275 9 -345 -6z"/>
<path d="M22005 7410 c-115 -4 -356 -8 -535 -9 -657 -2 -1657 -34 -2235 -71
-412 -27 -837 -70 -985 -101 -25 -5 -79 -16 -120 -25 -41 -8 -95 -20 -120 -25
-104 -23 -459 -76 -565 -84 -44 -3 -129 -12 -190 -20 -60 -7 -153 -16 -205
-20 -156 -11 -459 -87 -510 -127 -68 -56 -123 -174 -153 -333 -15 -75 -20
-120 -47 -380 -6 -55 -15 -127 -20 -160 -35 -218 -44 -272 -65 -372 -13 -62
-33 -143 -43 -180 -70 -249 -103 -547 -71 -644 14 -44 44 -69 80 -69 60 0 106
78 173 295 103 331 156 482 222 634 9 20 20 45 24 56 27 66 142 293 184 364
113 190 250 288 511 370 156 48 298 86 450 120 77 18 158 36 180 41 65 15 397
80 515 100 266 45 489 66 775 74 127 4 293 11 370 16 295 20 517 25 1030 25
542 0 678 -5 811 -30 87 -17 115 -30 108 -49 -8 -22 -50 -34 -164 -46 -93 -11
-150 -21 -320 -61 -25 -6 -56 -14 -70 -19 -14 -4 -45 -13 -70 -20 -25 -7 -56
-16 -70 -20 -14 -4 -59 -18 -100 -30 -41 -12 -176 -56 -300 -97 -196 -65 -289
-98 -415 -148 -16 -7 -46 -18 -65 -25 -19 -7 -59 -24 -88 -37 -29 -12 -55 -23
-57 -23 -2 0 -30 -12 -62 -26 -219 -98 -270 -132 -291 -193 -23 -66 56 -127
203 -156 119 -23 247 -52 472 -106 235 -57 318 -63 417 -28 34 12 66 25 71 29
20 14 162 59 265 83 215 50 315 68 650 117 132 19 510 83 595 100 28 6 75 15
105 21 30 6 93 19 140 30 298 64 708 112 1415 164 441 32 747 69 894 107 148
38 198 90 139 145 -35 32 -174 91 -313 133 -33 10 -105 32 -160 50 -55 17
-152 47 -215 66 -63 19 -160 48 -215 64 -148 45 -747 244 -845 280 -47 18
-134 50 -195 72 -60 22 -135 49 -165 60 -30 11 -126 45 -213 74 -178 61 -129
57 -542 44z"/>
<path d="M7465 6363 c-98 -10 -288 -46 -423 -79 -135 -33 -459 -135 -542 -171
-19 -8 -44 -19 -55 -23 -22 -9 -75 -31 -132 -56 -21 -9 -120 -57 -220 -105
-100 -49 -184 -89 -187 -89 -2 0 -33 -13 -68 -29 -35 -16 -76 -32 -93 -36 -83
-18 -248 -96 -457 -216 -363 -208 -777 -423 -998 -519 -41 -18 -93 -41 -116
-51 -22 -10 -65 -28 -95 -39 -30 -12 -67 -28 -84 -35 -58 -26 -301 -113 -430
-153 -71 -22 -189 -58 -260 -81 -225 -70 -295 -112 -295 -178 0 -54 33 -77
132 -93 95 -14 821 -9 1128 9 96 6 227 13 290 16 63 3 165 9 225 14 61 4 124
8 140 9 38 1 451 27 820 53 343 23 635 34 740 27 122 -8 169 -18 324 -72 142
-49 188 -49 269 3 98 64 116 124 58 189 -30 33 -124 88 -191 113 -64 23 -90
31 -181 54 -100 25 -120 29 -299 59 -158 26 -313 43 -590 66 -274 23 -445 48
-445 66 0 26 75 75 222 147 84 41 170 82 191 91 20 9 53 23 72 31 19 8 50 21
68 29 197 87 610 235 781 281 183 49 306 68 437 69 l127 1 103 -53 c111 -56
196 -113 206 -138 18 -46 -66 -36 -199 24 -106 49 -117 52 -183 52 -94 0 -345
-84 -543 -181 -194 -96 -190 -148 20 -253 111 -54 254 -116 271 -116 9 0 68
-24 99 -41 10 -5 22 -9 28 -9 6 0 29 -8 53 -19 23 -10 107 -47 187 -82 294
-128 562 -278 751 -418 120 -89 159 -131 159 -171 0 -35 -18 -54 -76 -80 -53
-23 -286 -85 -359 -94 -27 -4 -75 -13 -105 -21 -30 -7 -113 -28 -184 -45 -267
-66 -582 -187 -811 -310 -33 -18 -89 -48 -125 -68 -181 -97 -508 -325 -685
-476 -233 -199 -587 -540 -649 -624 -36 -50 -21 -82 48 -102 59 -16 98 -3 207
71 185 125 356 187 834 299 89 21 227 46 450 80 501 76 1041 88 1430 30 166
-24 191 -24 214 -1 40 40 21 128 -36 169 -51 36 -177 71 -328 92 -259 35 -307
42 -375 56 -113 22 -230 55 -275 79 -74 38 -55 72 80 142 168 87 319 113 654
113 364 -1 665 -45 1006 -150 39 -12 79 -24 90 -27 11 -3 25 -9 30 -13 6 -3
29 -12 53 -20 58 -18 70 -34 46 -62 -16 -17 -215 -169 -300 -228 -12 -8 -64
-44 -115 -79 -52 -36 -98 -69 -104 -73 -5 -5 -91 -69 -190 -144 -179 -134
-230 -173 -314 -243 -146 -119 -281 -237 -416 -362 -33 -30 -116 -104 -185
-163 -69 -60 -143 -125 -166 -145 -22 -20 -93 -80 -156 -134 -129 -108 -198
-189 -198 -231 0 -43 41 -76 94 -76 39 0 51 6 88 41 24 22 69 58 101 80 57 40
261 147 347 182 25 11 63 27 85 37 60 26 239 86 330 109 221 58 696 91 1330
91 434 1 565 20 581 87 10 39 -7 75 -51 104 -51 34 -151 73 -240 93 -172 38
-221 45 -400 60 -104 9 -261 22 -348 30 -224 19 -234 35 -88 135 164 112 226
124 616 119 182 -3 283 -8 310 -17 86 -28 207 -187 375 -496 79 -145 96 -172
182 -286 182 -241 517 -567 671 -652 61 -34 90 -34 116 -1 28 35 26 52 -7 121
-40 82 -65 119 -192 288 -133 176 -203 283 -303 460 -15 28 -62 120 -103 205
-296 606 -396 798 -529 1010 -181 290 -348 525 -532 751 -289 354 -411 517
-622 829 -217 322 -413 590 -605 830 -55 69 -103 127 -107 130 -3 3 -25 28
-48 55 -84 99 -288 299 -366 359 -99 77 -195 138 -258 166 -50 22 -152 32
-232 23z"/>
<path d="M17885 6360 c-146 -18 -368 -182 -610 -451 -66 -73 -133 -150 -150
-170 -16 -21 -75 -93 -130 -161 -184 -227 -299 -384 -464 -628 -220 -327 -433
-617 -672 -915 -430 -537 -751 -1048 -1004 -1595 -127 -275 -145 -311 -205
-416 -94 -165 -273 -424 -441 -639 -88 -113 -110 -195 -68 -249 27 -34 73 -35
125 0 144 96 414 350 552 518 87 106 222 289 222 301 0 3 11 22 23 43 13 20
41 71 62 112 160 308 273 430 435 469 81 19 213 31 345 30 137 -1 226 -15 305
-51 96 -43 262 -128 289 -147 16 -12 33 -21 39 -21 14 0 63 -51 57 -60 -9 -15
-198 -29 -470 -35 -334 -8 -514 -29 -679 -82 -136 -44 -204 -134 -143 -190 52
-48 182 -63 556 -63 375 -1 1036 -31 1141 -53 14 -3 52 -11 85 -17 123 -25
326 -87 413 -126 29 -13 57 -24 61 -24 10 0 173 -73 206 -92 11 -6 54 -29 95
-51 87 -46 117 -66 185 -123 64 -53 86 -64 129 -64 30 0 38 5 51 31 15 28 15
35 1 75 -30 88 -136 203 -276 301 -41 29 -248 197 -260 212 -3 3 -36 33 -75
66 -38 33 -97 85 -130 116 -333 312 -672 581 -1070 849 -162 109 -335 237
-335 249 0 4 8 15 18 23 59 51 498 173 742 207 41 6 111 16 155 22 122 18 559
15 670 -4 127 -23 209 -48 306 -96 205 -102 173 -154 -126 -211 -138 -26 -201
-37 -295 -51 -245 -37 -444 -89 -501 -131 -63 -47 -58 -115 11 -151 37 -19 72
-19 225 3 280 40 318 42 595 36 261 -5 366 -12 560 -35 206 -25 247 -31 428
-61 215 -35 444 -88 714 -164 66 -18 226 -79 280 -107 60 -31 110 -67 155
-115 41 -43 45 -44 103 -44 61 0 105 15 129 44 32 38 -59 143 -344 396 -33 30
-96 88 -140 131 -44 42 -96 90 -115 105 -19 15 -55 46 -80 70 -25 23 -85 72
-135 110 -459 347 -1120 663 -1589 759 -44 9 -83 18 -88 21 -9 6 -136 27 -258
44 -89 12 -128 23 -194 53 -77 36 -116 65 -116 87 0 36 219 207 421 328 154
93 388 213 549 284 102 45 221 92 360 144 85 31 193 75 240 98 100 49 180 119
180 159 0 60 -101 116 -325 182 -100 29 -170 62 -218 102 -62 51 -226 18 -431
-86 -103 -53 -126 -60 -126 -38 0 17 115 128 161 155 239 142 615 99 1219
-140 69 -27 139 -55 155 -63 17 -7 46 -19 65 -28 44 -19 165 -73 263 -116 69
-31 338 -137 397 -157 101 -33 106 -62 14 -81 -33 -7 -142 -17 -244 -23 -483
-27 -774 -64 -1080 -137 -153 -37 -189 -49 -293 -99 -63 -30 -147 -112 -147
-143 0 -23 92 -126 131 -146 45 -24 83 -18 233 33 l141 47 320 0 c176 0 410
-6 520 -13 110 -7 268 -17 350 -22 83 -5 229 -14 325 -20 96 -6 209 -12 250
-15 41 -2 118 -7 170 -10 515 -32 1196 -48 1430 -33 195 13 258 31 282 83 27
60 -67 114 -352 205 -403 128 -662 221 -865 310 -22 10 -67 30 -100 44 -152
67 -194 87 -415 198 -129 65 -329 174 -445 243 -224 134 -330 189 -545 280
-176 74 -184 78 -505 230 -138 65 -132 62 -250 108 -187 74 -557 182 -715 211
-185 33 -345 46 -425 36z"/>
</g>
</svg>
